<svg xmlns:xlink="http://www.w3.org/1999/xlink" xmlns="http://www.w3.org/2000/svg" viewBox="0 0 67.733 67.733">
    <defs>
        <radialGradient xlink:href="#a" id="c" cx="190.17" cy="241.434" r="33.867" fx="190.17" fy="241.434"
                        gradientTransform="rotate(48.832 924.803 568.517)scale(1.01254 3.76427)"
                        gradientUnits="userSpaceOnUse"/>
        <radialGradient xlink:href="#b" id="d" cx="192.828" cy="250.137" r="31.669" fx="192.828" fy="250.137"
                        gradientTransform="matrix(1 0 0 .99984 0 .039)" gradientUnits="userSpaceOnUse"/>
        <linearGradient id="b">
            <stop offset="0" stop-color="#b3c0ff"/>
            <stop offset="1" stop-color="#99a9ff"/>
        </linearGradient>
        <linearGradient id="a">
            <stop offset="0" stop-color="#7676e5"/>
            <stop offset="1" stop-color="#3f3fda"/>
        </linearGradient>
    </defs>
    <path fill="url(#c)"
          d="M200.611 272.752c-5.433 1.775-11.184 1.523-16.544-.727-.36-.151-.677-.263-.706-.248a47 47 0 0 0-1.13.891c-5.693 4.565-10.181 7.618-14.098 9.59-.946.477-3.213 1.34-3.96 1.508-1.468.33-2.538.301-3.44-.092-.486-.212-.958-.6-1.222-1.007-.861-1.326-.69-3.48.496-6.27.327-.768.706-1.58.97-2.076l.383-.726c1.015-1.936 3.146-5.195 5.338-8.167 1.987-2.693 2.11-2.842 2.624-3.178.843-.551 1.82-.566 2.394-.036.465.429.577 1.207.28 1.937a4 4 0 0 1-.277.545 85 85 0 0 0-1.974 2.971c-.298.48-.572.866-.608.86s-.044.004-.016.025-.146.383-.386.804c-.87 1.524-1.737 3.769-1.597 4.13.01.027.147.042.304.033.377-.023 2.015-.61 2.734-.982 1.892-.976 3.405-1.92 5.926-3.696 1.146-.807 1.42-1.02 1.395-1.083a.22.22 0 0 0-.093-.107c-.034-.015-.295-.262-.58-.548a23.3 23.3 0 0 1-4.64-6.591c-.446-.943-1.174-2.93-1.422-3.883-1.734-6.67-.546-13.615 3.282-19.184a20.6 20.6 0 0 1 2.07-2.589c2.052-2.23 4.212-3.85 6.978-5.229.805-.401 2.856-1.18 3.816-1.45 6.783-1.907 13.895-.731 19.68 3.254 1.282.883 2.896 2.28 3.813 3.299l.1.112.558-.763c2.577-3.527 4.514-6.882 5.01-8.68.113-.412.194-.926.15-.944-.012-.005-.155 0-.319.012-.454.032-1.81.529-2.766 1.013-1.407.712-3.326 1.877-4.846 2.94-1.097.766-1.33.899-1.752.991q-.986.216-1.563-.317c-.32-.296-.501-.814-.458-1.315.04-.455.318-1.072.664-1.468.336-.384 2.126-1.754 4.437-3.396 5.076-3.605 8.956-5.71 11.806-6.407 2.183-.534 3.76-.207 4.654.965.257.337.543 1.062.591 1.499.17 1.534-.23 3.215-1.355 5.698-1.717 3.792-5.134 8.9-9.976 14.914l-.872 1.083.586 1.536c.464 1.218.632 1.72.81 2.419 1.006 3.93 1.03 7.8.073 11.662-1.136 4.588-3.729 8.805-7.335 11.93a23.2 23.2 0 0 1-7.987 4.537z"
          transform="translate(-158.97 -216.26)"/>
    <path fill="url(#d)"
          d="M167.49 280.39c2.122-1.052 4.41-2.458 7.34-4.512a92 92 0 0 0 1.93-1.38c.188-.146.823-.63 1.412-1.076 3.177-2.408 7.361-5.893 10.702-8.913.305-.276.767-.692 1.028-.924.533-.477 3.006-2.78 3.928-3.659 6.627-6.314 12.957-13.036 18.154-19.275 7.796-9.36 12.48-16.976 12.512-20.34.004-.386-.02-.516-.154-.863-.127-.33-.193-.44-.34-.567-1.309-1.129-4.86.099-10.204 3.527-1.366.876-3.432 2.288-3.38 2.31.016.008.208-.094.427-.226 1.373-.825 3.423-1.765 4.45-2.04 1.052-.28 1.791-.284 2.334-.01 1.284.65 1.01 2.773-.799 6.204-4.448 8.439-17.19 22.887-30.194 34.237-6.907 6.028-13.03 10.366-17.042 12.074-1.755.746-2.936.94-3.748.614-.444-.178-.614-.374-.79-.905-.12-.368-.13-.473-.09-.95.024-.294.106-.783.182-1.087.194-.774 1.128-2.872 1.798-4.039.297-.517.524-.934.504-.926-.044.017-1.162 1.618-1.796 2.571-2.235 3.366-3.818 6.458-4.315 8.434-.406 1.61-.12 2.675.805 3.013.607.221 1.636.13 2.868-.252.393-.122 1.908-.759 2.478-1.041z"
          transform="translate(-158.97 -216.26)"/>
</svg>