<svg xmlns="http://www.w3.org/2000/svg" viewBox="0 0 67.73336 67.73333">
    <path fill="#44d"
          d="M41.64042 56.49208c-5.43358 1.77592-11.18428 1.52326-16.54429-.72687-.35941-.15088-.67706-.2623-.70589-.2476-.0288.0147-.5375.41566-1.13038.89103-5.69283 4.56445-10.18096 7.61761-14.09799 9.59049-.94534.47613-3.21321 1.33918-3.96033 1.5071-1.46706.32975-2.53743.30134-3.43867-.0913-.48643-.2119-.95851-.60097-1.22275-1.00776-.86098-1.3254-.69053-3.47876.49632-6.27038.32623-.76733.70565-1.57967.96933-2.07531.11456-.21535.28712-.54188.38346-.72563 1.01507-1.93591 3.14562-5.1955 5.33812-8.16698 1.98698-2.69292 2.11-2.84195 2.62388-3.17822.84257-.55137 1.81994-.56601 2.39433-.0359.46449.42872.5765 1.20694.27871 1.9365-.0797.1953-.20404.44074-.27628.54542-.78588 1.13891-1.52682 2.25458-1.97339 2.9714-.29855.47923-.57243.86583-.60864.85912-.037-.007-.0438.004-.0155.0258.0277.0209-.14615.38243-.38629.80339-.86952 1.5243-1.73728 3.76873-1.59689 4.13032.0105.0272.1472.0418.30365.0325.37721-.0225 2.01527-.61045 2.73412-.98144 1.89192-.9764 3.40463-1.91977 5.92657-3.69603 1.14601-.80716 1.41959-1.0195 1.39501-1.0828-.0168-.0433-.0588-.0915-.0933-.10702-.0345-.0156-.29541-.26217-.57975-.54803-1.96169-1.97213-3.4601-4.10075-4.63986-6.59132-.4467-.94301-1.17462-2.93045-1.42236-3.88345-1.734-6.67043-.54587-13.61459 3.2822-19.18316.70029-1.01868 1.19212-1.63374 2.07017-2.58887 2.0511-2.23113 4.2115-3.85027 6.97745-5.22937.80459-.40117 2.85557-1.18102 3.81585-1.45091 6.78302-1.90639 13.89468-.73032 19.68014 3.25454 1.28185.8829 2.89567 2.2794 3.81249 3.29909l.10103.11236.55788-.76351c2.57688-3.52666 4.51311-6.88186 5.00888-8.67961.11371-.41232.19517-.9259.14979-.94425-.0115-.005-.15458.00077-.3178.0124-.45463.032-1.81081.52831-2.76657 1.01242-1.40673.71255-3.326 1.8769-4.84542 2.93954-1.097.76721-1.33069.89951-1.75218.99192-.65795.14425-1.17761.0387-1.56347-.31738-.32057-.29587-.50094-.81404-.45776-1.31507.0392-.45484.31827-1.07163.66383-1.46717.33628-.3849 2.12585-1.75464 4.43719-3.3962C55.72098 3.05085 59.60065.94528 62.45077.24871c2.18369-.53371 3.76039-.20683 4.65432.96491.25701.33689.5428 1.06154.59102 1.49861.16924 1.53388-.23052 3.21496-1.35514 5.69862-1.71712 3.79219-5.13357 8.89994-9.97538 14.91364l-.87208 1.08316.58538 1.53629c.46385 1.21738.63218 1.71941.81089 2.4184 1.00504 3.93092 1.02913 7.80076.0726 11.66212-1.1365 4.58776-3.72918 8.80466-7.33552 11.93094-2.3578 2.04394-5.06503 3.58176-7.98638 4.53658z"/>
    <path fill="#9af"
          d="M26.49855 26.31561c.10592-.21106.19463-.30097.44241-.44823l.30994-.18421-.30923-.16692c-.25487-.13758-.33281-.21322-.44329-.43021-.0737-.14481-.14876-.2637-.16674-.2642-.018-.00051-.0976.12261-.17694.27358-.11826.22498-.19797.30324-.44216.43405l-.29789.15957.29697.16907c.23672.13476.32669.22493.44343.44439.0805.15143.16098.27573.17874.27622.0178.00052.0919-.11791.16476-.26311m-6.53097 4.26492c.36408-.35001.15045-1.03734-.33876-1.0899-.24451-.0263-.52933.0984-.63576.27824-.10569.17861-.14122.43795-.0812.5926.0698.17967.33115.36941.54505.39564.23921.0293.32858-.002.51064-.17658zm-4.71377 6.73516.26509-.49943.46028-.27307c.25315-.15018.49415-.29264.53556-.31657.0543-.0314-.0792-.12076-.47898-.3207l-.55426-.27719-.3141-.5412-.3141-.5412-.27835.55123-.27835.55122-.5155.29692c-.28352.1633-.51649.31334-.51772.33341-.001.02.23683.15509.529.30004l.53123.26354.29949.51833c.16471.28508.31436.50389.33255.48622.0181-.0177.15236-.25686.29816-.53155m8.61119 3.88163c.54307-.39159.98708-1.09539 1.08883-1.7259.0958-.59344-.0272-1.29181-.31373-1.78221-.68017-1.164-2.07558-1.66468-3.30766-1.18681-.4363.16922-.73721.37691-1.05598.72885-.65077.71848-.85828 1.86402-.50233 2.77315.42689 1.09031 1.62681 1.81086 2.81809 1.69227.338-.0337.97177-.2823 1.27279-.49934z"/>
    <path fill="#9af"
          d="M8.5192 64.12968c2.12236-1.05141 4.40966-2.45746 7.33928-4.51159.87468-.6133 1.74367-1.23416 1.93107-1.37969s.82256-.62979 1.41147-1.07611c3.17676-2.4076 7.3615-5.8927 10.70244-8.91312.30465-.27542.76688-.69109 1.02718-.92368.5338-.47701 3.00631-2.77937 3.92882-3.65847 6.62655-6.31468 12.95664-13.03598 18.15368-19.2756 7.79619-9.3602 12.48061-16.97568 12.51198-20.34077.004-.38461-.0196-.51457-.15364-.86255-.1272-.33031-.1932-.44016-.34017-.56685-1.30903-1.12833-4.86015.0991-10.20421 3.52713-1.36637.87648-3.43173 2.2885-3.38043 2.3111.0161.007.20862-.0949.42777-.22663 1.37244-.82512 3.42301-1.76498 4.45028-2.03972 1.05158-.28125 1.79059-.2843 2.33387-.01 1.28307.64871 1.00946 2.77216-.79939 6.20393-4.44769 8.43823-17.19046 22.88673-30.1944 34.2362-6.90674 6.028-13.0305 10.36657-17.04183 12.07382-1.7551.74699-2.93553.94042-3.74826.61422-.44355-.17801-.61383-.37338-.7887-.90483-.12119-.36832-.13127-.4728-.0915-.94926.0246-.29445.10692-.78391.18302-1.08768.19398-.77424 1.12782-2.87236 1.79757-4.03873.29688-.51701.52374-.93381.50413-.9262-.0444.0172-1.16244 1.61832-1.79563 2.57144-2.23594 3.36571-3.81815 6.45749-4.31564 8.43318-.40536 1.60976-.12057 2.67509.80554 3.01335.60618.22142 1.63532.13094 2.86748-.25208.39301-.12217 1.9077-.75853 2.47825-1.04119z"/>
    <path fill="#44d"
          d="M5.63557 31.53865c-.74083.0707-1.48681-.21159-1.94387-.73566-1.12606-1.2912-.47134-3.37219 1.16871-3.71464.88193-.18416 1.67571.0843 2.2525.76176.22027.25872.27431.35838.38998.7192.0801.24992.13495.5415.13594.72293.003.60926-.32442 1.32232-.79398 1.72723-.25906.2234-.87329.4871-1.20928.51918m.16333 8.20211-.2907-.5108-.53837-.27366-.53837-.27365.52741-.30931.52742-.30932.27704-.53982.27704-.53983.30837.53851.30838.53851.52065.26086c.28635.14348.51957.27342.51826.28875-.001.0153-.23522.15995-.51979.3214l-.51742.29353-.26335.51301c-.14485.28216-.27293.51293-.28461.51283-.0117-.00009-.15208-.23006-.31196-.51101m56.90764-11.11049c-.0393-.082-.28604-.52521-.5483-.98485l-.47686-.83573-.99205-.51624c-.54563-.28394-.97928-.52859-.96367-.54367.0156-.0151.45502-.26793.97648-.56188l.94811-.53446.53621-1.01356.53623-1.01356.54421.95436c.29931.5249.55026.96835.55764.98544.007.0171.45718.26525.99955.55143s.98587.53576.98555.55461c-.00051.0334-.20549.15431-1.37529.8116l-.56579.31791-.51528.98937c-.28342.54416-.52879.98915-.54529.98887-.0165-.00026-.0622-.0676-.10145-.14964m-.48692 12.01292c-.99239-.0927-1.58782-1.1405-1.16708-2.05366.54748-1.18828 2.29858-1.06392 2.68854.19094.31098 1.00073-.47312 1.96071-1.52146 1.86272m-34.6732 25.04857-.55979-.9853-.9605-.49185c-.52827-.27052-.97189-.51063-.9858-.53358-.0139-.0229.40702-.29321.93542-.60057l.96073-.55884.50845-.98976c.27964-.54437.52007-.98845.53426-.98683.0142.002.27783.43666.58585.96676l.56003.96381.98912.50614c.54401.27838.98958.5187.99015.53406.001.0277-.3656.24544-1.38703.82375l-.531.30064-.54005 1.01844-.54005 1.01843z"/>
</svg>