<svg xmlns="http://www.w3.org/2000/svg" viewBox="0 0 67.73333 67.73333">
    <path fill="#44d"
          d="M53.0206.2763c-4.4454.74277-8.16509 3.62229-12.51174 4.47148-2.99334.58482-6.08333-.48542-9.13008-.10271-9.7258 1.2205-18.49836 6.18717-23.28178 15.00072-2.19348 4.0415-3.5305 8.93206-3.673 13.54055-.07337 2.371.6367 4.75008.27803 7.10983-.36389 2.39435-1.68303 4.55839-2.59106 6.77126-2.7628 6.73298-4.33244 18.39573 5.2622 20.36785 1.8507.38056 3.87133.34842 5.74525.17101 4.96944-.47028 8.46825-3.0812 13.27882-3.92286 3.1242-.54649 6.89578-.1853 10.05382-.61591 9.99411-1.36343 18.92611-6.72721 23.4662-16.00009 3.33118-6.80305 1.9985-12.94423 3.13368-19.97519 1.25758-7.7866 10.0557-20.05726-.30098-25.83266C61.51874.57299 60.16544.22827 58.76891.10234c-1.88894-.17038-3.87597-.13837-5.74832.17443"/>
    <path fill="#9af"
          d="M54.72357 7.10312c3.6355-.83582 6.26627 1.37392 5.88658 5.0908-.45617 4.46909-3.07827 8.9909-5.37157 12.74939-7.22026 11.83417-17.72846 22.47308-29.45596 29.84998-4.11425 2.58798-9.63225 6.10972-14.6837 6.01018-2.93303-.0574-4.57027-2.52221-4.28327-4.99137.2347-2.01933 1.00066-5.5642 2.76157-5.59363 2.22088-.0371 3.3007.60123 5.302.39002 1.82594-.1927 3.09347-.47145 4.66412-1.36009 9.9671-5.63916 18.56056-14.14349 25.4116-23.24938 2.18107-2.89875 5.09168-6.83325 6.1964-10.3296.75203-2.38016-.75562-5.05559-.0196-6.78287.38594-.90578 1.81277-1.37441 3.59186-1.78343z"/>
</svg>