<?xml version="1.0" encoding="UTF-8" standalone="no"?>
<!-- Created with Inkscape (http://www.inkscape.org/) -->

<svg
   width="256.00012"
   height="256.00003"
   viewBox="0 0 67.733357 67.733335"
   version="1.1"
   id="svg1426"
   sodipodi:docname="saturn.svg"
   inkscape:version="1.2.2 (b0a8486541, 2022-12-01)"
   inkscape:export-filename="saturn.png"
   inkscape:export-xdpi="3.072"
   inkscape:export-ydpi="3.072"
   xmlns:inkscape="http://www.inkscape.org/namespaces/inkscape"
   xmlns:sodipodi="http://sodipodi.sourceforge.net/DTD/sodipodi-0.dtd"
   xmlns="http://www.w3.org/2000/svg"
   xmlns:svg="http://www.w3.org/2000/svg">
  <sodipodi:namedview
     id="namedview1428"
     pagecolor="#ffffff"
     bordercolor="#000000"
     borderopacity="0.25"
     inkscape:showpageshadow="2"
     inkscape:pageopacity="0.0"
     inkscape:pagecheckerboard="0"
     inkscape:deskcolor="#d1d1d1"
     inkscape:document-units="mm"
     showgrid="false"
     inkscape:zoom="1.1893044"
     inkscape:cx="697.04611"
     inkscape:cy="198.85574"
     inkscape:window-width="1920"
     inkscape:window-height="1134"
     inkscape:window-x="0"
     inkscape:window-y="0"
     inkscape:window-maximized="1"
     inkscape:current-layer="layer1" />
  <defs
     id="defs1423" />
  <g
     inkscape:label="Main"
     inkscape:groupmode="layer"
     id="layer1"
     transform="translate(-158.97086,-216.25942)">
    <path
       style="display:inline;fill:#4444dd;fill-opacity:1;stroke-width:0.0516645"
       d="m 200.61128,272.7515 c -5.43358,1.77592 -11.18428,1.52326 -16.54429,-0.72687 -0.35941,-0.15088 -0.67706,-0.2623 -0.70589,-0.2476 -0.0288,0.0147 -0.5375,0.41566 -1.13038,0.89103 -5.69283,4.56445 -10.18096,7.61761 -14.09799,9.59049 -0.94534,0.47613 -3.21321,1.33918 -3.96033,1.5071 -1.46706,0.32975 -2.53743,0.30134 -3.43867,-0.0913 -0.48643,-0.2119 -0.95851,-0.60097 -1.22275,-1.00776 -0.86098,-1.3254 -0.69053,-3.47876 0.49632,-6.27038 0.32623,-0.76733 0.70565,-1.57967 0.96933,-2.07531 0.11456,-0.21535 0.28712,-0.54188 0.38346,-0.72563 1.01507,-1.93591 3.14562,-5.1955 5.33812,-8.16698 1.98698,-2.69292 2.11,-2.84195 2.62388,-3.17822 0.84257,-0.55137 1.81994,-0.56601 2.39433,-0.0359 0.46449,0.42872 0.5765,1.20694 0.27871,1.9365 -0.0797,0.1953 -0.20404,0.44074 -0.27628,0.54542 -0.78588,1.13891 -1.52682,2.25458 -1.97339,2.9714 -0.29855,0.47923 -0.57243,0.86583 -0.60864,0.85912 -0.037,-0.007 -0.0438,0.004 -0.0155,0.0258 0.0277,0.0209 -0.14615,0.38243 -0.38629,0.80339 -0.86952,1.5243 -1.73728,3.76873 -1.59689,4.13032 0.0105,0.0272 0.1472,0.0418 0.30365,0.0325 0.37721,-0.0225 2.01527,-0.61045 2.73412,-0.98144 1.89192,-0.9764 3.40463,-1.91977 5.92657,-3.69603 1.14601,-0.80716 1.41959,-1.0195 1.39501,-1.0828 -0.0168,-0.0433 -0.0588,-0.0915 -0.0933,-0.10702 -0.0345,-0.0156 -0.29541,-0.26217 -0.57975,-0.54803 -1.96169,-1.97213 -3.4601,-4.10075 -4.63986,-6.59132 -0.4467,-0.94301 -1.17462,-2.93045 -1.42236,-3.88345 -1.734,-6.67043 -0.54587,-13.61459 3.2822,-19.18316 0.70029,-1.01868 1.19212,-1.63374 2.07017,-2.58887 2.0511,-2.23113 4.2115,-3.85027 6.97745,-5.22937 0.80459,-0.40117 2.85557,-1.18102 3.81585,-1.45091 6.78302,-1.90639 13.89468,-0.73032 19.68014,3.25454 1.28185,0.8829 2.89567,2.2794 3.81249,3.29909 l 0.10103,0.11236 0.55788,-0.76351 c 2.57688,-3.52666 4.51311,-6.88186 5.00888,-8.67961 0.11371,-0.41232 0.19517,-0.9259 0.14979,-0.94425 -0.0115,-0.005 -0.15458,7.7e-4 -0.3178,0.0124 -0.45463,0.032 -1.81081,0.52831 -2.76657,1.01242 -1.40673,0.71255 -3.326,1.8769 -4.84542,2.93954 -1.097,0.76721 -1.33069,0.89951 -1.75218,0.99192 -0.65795,0.14425 -1.17761,0.0387 -1.56347,-0.31738 -0.32057,-0.29587 -0.50094,-0.81404 -0.45776,-1.31507 0.0392,-0.45484 0.31827,-1.07163 0.66383,-1.46717 0.33628,-0.3849 2.12585,-1.75464 4.43719,-3.3962 5.07592,-3.60503 8.95559,-5.7106 11.80571,-6.40717 2.18369,-0.53371 3.76039,-0.20683 4.65432,0.96491 0.25701,0.33689 0.5428,1.06154 0.59102,1.49861 0.16924,1.53388 -0.23052,3.21496 -1.35514,5.69862 -1.71712,3.79219 -5.13357,8.89994 -9.97538,14.91364 l -0.87208,1.08316 0.58538,1.53629 c 0.46385,1.21738 0.63218,1.71941 0.81089,2.4184 1.00504,3.93092 1.02913,7.80076 0.0726,11.66212 -1.1365,4.58776 -3.72918,8.80466 -7.33552,11.93094 -2.3578,2.04394 -5.06503,3.58176 -7.98638,4.53658 z"
       id="path1987"
       inkscape:label="Planet" />
    <path
       style="display:inline;fill:#99aaff;fill-opacity:1;stroke-width:0.0516645"
       d="m 185.46941,242.57503 c 0.10592,-0.21106 0.19463,-0.30097 0.44241,-0.44823 l 0.30994,-0.18421 -0.30923,-0.16692 c -0.25487,-0.13758 -0.33281,-0.21322 -0.44329,-0.43021 -0.0737,-0.14481 -0.14876,-0.2637 -0.16674,-0.2642 -0.018,-5.1e-4 -0.0976,0.12261 -0.17694,0.27358 -0.11826,0.22498 -0.19797,0.30324 -0.44216,0.43405 l -0.29789,0.15957 0.29697,0.16907 c 0.23672,0.13476 0.32669,0.22493 0.44343,0.44439 0.0805,0.15143 0.16098,0.27573 0.17874,0.27622 0.0178,5.2e-4 0.0919,-0.11791 0.16476,-0.26311 z"
       id="path1985"
       inkscape:label="Star S (Secondary)" />
    <path
       style="display:inline;fill:#99aaff;fill-opacity:1;stroke-width:0.0516645"
       d="m 178.93844,246.83995 c 0.36408,-0.35001 0.15045,-1.03734 -0.33876,-1.0899 -0.24451,-0.0263 -0.52933,0.0984 -0.63576,0.27824 -0.10569,0.17861 -0.14122,0.43795 -0.0812,0.5926 0.0698,0.17967 0.33115,0.36941 0.54505,0.39564 0.23921,0.0293 0.32858,-0.002 0.51064,-0.17658 z"
       id="path1983"
       inkscape:label="Circle S (Secondary)" />
    <path
       style="display:inline;fill:#99aaff;fill-opacity:1;stroke-width:0.0516645"
       d="m 174.22467,253.57511 0.26509,-0.49943 0.46028,-0.27307 c 0.25315,-0.15018 0.49415,-0.29264 0.53556,-0.31657 0.0543,-0.0314 -0.0792,-0.12076 -0.47898,-0.3207 l -0.55426,-0.27719 -0.3141,-0.5412 -0.3141,-0.5412 -0.27835,0.55123 -0.27835,0.55122 -0.5155,0.29692 c -0.28352,0.1633 -0.51649,0.31334 -0.51772,0.33341 -0.001,0.02 0.23683,0.15509 0.529,0.30004 l 0.53123,0.26354 0.29949,0.51833 c 0.16471,0.28508 0.31436,0.50389 0.33255,0.48622 0.0181,-0.0177 0.15236,-0.25686 0.29816,-0.53155 z"
       id="path1981"
       inkscape:label="Star M (Secondary)" />
    <path
       style="display:inline;fill:#99aaff;fill-opacity:1;stroke-width:0.0516645"
       d="m 182.83586,257.45674 c 0.54307,-0.39159 0.98708,-1.09539 1.08883,-1.7259 0.0958,-0.59344 -0.0272,-1.29181 -0.31373,-1.78221 -0.68017,-1.164 -2.07558,-1.66468 -3.30766,-1.18681 -0.4363,0.16922 -0.73721,0.37691 -1.05598,0.72885 -0.65077,0.71848 -0.85828,1.86402 -0.50233,2.77315 0.42689,1.09031 1.62681,1.81086 2.81809,1.69227 0.338,-0.0337 0.97177,-0.2823 1.27279,-0.49934 z"
       id="path2823-2"
       inkscape:label="Circle XL (Secondary)" />
    <path
       style="display:inline;fill:#99aaff;fill-opacity:1;stroke-width:0.0516645"
       d="m 167.49006,280.3891 c 2.12236,-1.05141 4.40966,-2.45746 7.33928,-4.51159 0.87468,-0.6133 1.74367,-1.23416 1.93107,-1.37969 0.1874,-0.14554 0.82256,-0.62979 1.41147,-1.07611 3.17676,-2.4076 7.3615,-5.8927 10.70244,-8.91312 0.30465,-0.27542 0.76688,-0.69109 1.02718,-0.92368 0.5338,-0.47701 3.00631,-2.77937 3.92882,-3.65847 6.62655,-6.31468 12.95664,-13.03598 18.15368,-19.2756 7.79619,-9.3602 12.48061,-16.97568 12.51198,-20.34077 0.004,-0.38461 -0.0196,-0.51457 -0.15364,-0.86255 -0.1272,-0.33031 -0.1932,-0.44016 -0.34017,-0.56685 -1.30903,-1.12833 -4.86015,0.0991 -10.20421,3.52713 -1.36637,0.87648 -3.43173,2.2885 -3.38043,2.3111 0.0161,0.007 0.20862,-0.0949 0.42777,-0.22663 1.37244,-0.82512 3.42301,-1.76498 4.45028,-2.03972 1.05158,-0.28125 1.79059,-0.2843 2.33387,-0.01 1.28307,0.64871 1.00946,2.77216 -0.79939,6.20393 -4.44769,8.43823 -17.19046,22.88673 -30.1944,34.2362 -6.90674,6.028 -13.0305,10.36657 -17.04183,12.07382 -1.7551,0.74699 -2.93553,0.94042 -3.74826,0.61422 -0.44355,-0.17801 -0.61383,-0.37338 -0.7887,-0.90483 -0.12119,-0.36832 -0.13127,-0.4728 -0.0915,-0.94926 0.0246,-0.29445 0.10692,-0.78391 0.18302,-1.08768 0.19398,-0.77424 1.12782,-2.87236 1.79757,-4.03873 0.29688,-0.51701 0.52374,-0.93381 0.50413,-0.9262 -0.0444,0.0172 -1.16244,1.61832 -1.79563,2.57144 -2.23594,3.36571 -3.81815,6.45749 -4.31564,8.43318 -0.40536,1.60976 -0.12057,2.67509 0.80554,3.01335 0.60618,0.22142 1.63532,0.13094 2.86748,-0.25208 0.39301,-0.12217 1.9077,-0.75853 2.47825,-1.04119 z"
       id="path1219"
       inkscape:label="Inner Ring" />
    <path
       style="display:inline;fill:#4444dd;fill-opacity:1;stroke-width:0.0516645"
       d="m 164.60643,247.79807 c -0.74083,0.0707 -1.48681,-0.21159 -1.94387,-0.73566 -1.12606,-1.2912 -0.47134,-3.37219 1.16871,-3.71464 0.88193,-0.18416 1.67571,0.0843 2.2525,0.76176 0.22027,0.25872 0.27431,0.35838 0.38998,0.7192 0.0801,0.24992 0.13495,0.5415 0.13594,0.72293 0.003,0.60926 -0.32442,1.32232 -0.79398,1.72723 -0.25906,0.2234 -0.87329,0.4871 -1.20928,0.51918 z"
       id="path2817"
       inkscape:label="Circle L" />
    <path
       style="display:inline;fill:#4444dd;fill-opacity:1;stroke-width:0.0516645"
       d="m 164.76976,256.00018 -0.2907,-0.5108 -0.53837,-0.27366 -0.53837,-0.27365 0.52741,-0.30931 0.52742,-0.30932 0.27704,-0.53982 0.27704,-0.53983 0.30837,0.53851 0.30838,0.53851 0.52065,0.26086 c 0.28635,0.14348 0.51957,0.27342 0.51826,0.28875 -0.001,0.0153 -0.23522,0.15995 -0.51979,0.3214 l -0.51742,0.29353 -0.26335,0.51301 c -0.14485,0.28216 -0.27293,0.51293 -0.28461,0.51283 -0.0117,-9e-5 -0.15208,-0.23006 -0.31196,-0.51101 z"
       id="path2815"
       inkscape:label="Star M" />
    <path
       style="display:inline;fill:#4444dd;fill-opacity:1;stroke-width:0.0516645"
       d="m 221.6774,244.88969 c -0.0393,-0.082 -0.28604,-0.52521 -0.5483,-0.98485 l -0.47686,-0.83573 -0.99205,-0.51624 c -0.54563,-0.28394 -0.97928,-0.52859 -0.96367,-0.54367 0.0156,-0.0151 0.45502,-0.26793 0.97648,-0.56188 l 0.94811,-0.53446 0.53621,-1.01356 0.53623,-1.01356 0.54421,0.95436 c 0.29931,0.5249 0.55026,0.96835 0.55764,0.98544 0.007,0.0171 0.45718,0.26525 0.99955,0.55143 0.54237,0.28618 0.98587,0.53576 0.98555,0.55461 -5.1e-4,0.0334 -0.20549,0.15431 -1.37529,0.8116 l -0.56579,0.31791 -0.51528,0.98937 c -0.28342,0.54416 -0.52879,0.98915 -0.54529,0.98887 -0.0165,-2.6e-4 -0.0622,-0.0676 -0.10145,-0.14964 z"
       id="path2813"
       inkscape:label="Star L" />
    <path
       style="display:inline;fill:#4444dd;fill-opacity:1;stroke-width:0.0516645"
       d="m 221.19048,256.90261 c -0.99239,-0.0927 -1.58782,-1.1405 -1.16708,-2.05366 0.54748,-1.18828 2.29858,-1.06392 2.68854,0.19094 0.31098,1.00073 -0.47312,1.96071 -1.52146,1.86272 z"
       id="path2811"
       inkscape:label="Circle M" />
    <path
       style="display:inline;fill:#4444dd;fill-opacity:1;stroke-width:0.0516645"
       d="m 186.51728,281.95118 -0.55979,-0.9853 -0.9605,-0.49185 c -0.52827,-0.27052 -0.97189,-0.51063 -0.9858,-0.53358 -0.0139,-0.0229 0.40702,-0.29321 0.93542,-0.60057 l 0.96073,-0.55884 0.50845,-0.98976 c 0.27964,-0.54437 0.52007,-0.98845 0.53426,-0.98683 0.0142,0.002 0.27783,0.43666 0.58585,0.96676 l 0.56003,0.96381 0.98912,0.50614 c 0.54401,0.27838 0.98958,0.5187 0.99015,0.53406 0.001,0.0277 -0.3656,0.24544 -1.38703,0.82375 l -0.531,0.30064 -0.54005,1.01844 -0.54005,1.01843 z"
       id="path1407"
       inkscape:label="Star L" />
  </g>
</svg>
