<?xml version="1.0" encoding="UTF-8" standalone="no"?>
<!-- Created with Inkscape (http://www.inkscape.org/) -->

<svg
   width="256.00012"
   height="256.00003"
   viewBox="0 0 67.733357 67.733335"
   version="1.1"
   id="svg1426"
   sodipodi:docname="saturn.svg"
   inkscape:version="1.2.2 (b0a8486541, 2022-12-01)"
   inkscape:export-filename="saturn.png"
   inkscape:export-xdpi="3.072"
   inkscape:export-ydpi="3.072"
   xmlns:inkscape="http://www.inkscape.org/namespaces/inkscape"
   xmlns:sodipodi="http://sodipodi.sourceforge.net/DTD/sodipodi-0.dtd"
   xmlns:xlink="http://www.w3.org/1999/xlink"
   xmlns="http://www.w3.org/2000/svg"
   xmlns:svg="http://www.w3.org/2000/svg">
  <sodipodi:namedview
     id="namedview1428"
     pagecolor="#ffffff"
     bordercolor="#000000"
     borderopacity="0.25"
     inkscape:showpageshadow="2"
     inkscape:pageopacity="0.0"
     inkscape:pagecheckerboard="0"
     inkscape:deskcolor="#d1d1d1"
     inkscape:document-units="mm"
     showgrid="false"
     inkscape:zoom="2.3786088"
     inkscape:cx="218.61518"
     inkscape:cy="78.407176"
     inkscape:window-width="1920"
     inkscape:window-height="1134"
     inkscape:window-x="0"
     inkscape:window-y="0"
     inkscape:window-maximized="1"
     inkscape:current-layer="layer1" />
  <defs
     id="defs1423">
    <linearGradient
       inkscape:collect="always"
       id="Ring">
      <stop
         style="stop-color:#b3c0ff;stop-opacity:1;"
         offset="0"
         id="stop5119" />
      <stop
         style="stop-color:#99a9ff;stop-opacity:1;"
         offset="1"
         id="stop5121" />
    </linearGradient>
    <linearGradient
       inkscape:collect="always"
       id="Planet">
      <stop
         style="stop-color:#7676e5;stop-opacity:1;"
         offset="0"
         id="stop1536" />
      <stop
         style="stop-color:#3f3fda;stop-opacity:1;"
         offset="1"
         id="stop1534" />
    </linearGradient>
    <radialGradient
       inkscape:collect="always"
       xlink:href="#Planet"
       id="radialGradient1542"
       cx="190.16969"
       cy="241.43448"
       fx="190.16969"
       fy="241.43448"
       r="33.866684"
       gradientTransform="matrix(0.66652828,0.76221455,-2.8336581,2.4779192,743.99469,-501.89459)"
       gradientUnits="userSpaceOnUse" />
    <radialGradient
       inkscape:collect="always"
       xlink:href="#Ring"
       id="radialGradient6507"
       cx="192.82768"
       cy="250.13698"
       fx="192.82768"
       fy="250.13698"
       r="31.668695"
       gradientTransform="matrix(1,0,0,0.99984498,0,0.03877503)"
       gradientUnits="userSpaceOnUse" />
  </defs>
  <g
     inkscape:label="Main"
     inkscape:groupmode="layer"
     id="layer1"
     transform="translate(-158.97086,-216.25942)"
     style="display:inline">
    <path
       style="display:inline;fill:url(#radialGradient1542);fill-opacity:1;stroke-width:0.0516645;image-rendering:auto"
       d="m 200.61128,272.7515 c -5.43358,1.77592 -11.18428,1.52326 -16.54429,-0.72687 -0.35941,-0.15088 -0.67706,-0.2623 -0.70589,-0.2476 -0.0288,0.0147 -0.5375,0.41566 -1.13038,0.89103 -5.69283,4.56445 -10.18096,7.61761 -14.09799,9.59049 -0.94534,0.47613 -3.21321,1.33918 -3.96033,1.5071 -1.46706,0.32975 -2.53743,0.30134 -3.43867,-0.0913 -0.48643,-0.2119 -0.95851,-0.60097 -1.22275,-1.00776 -0.86098,-1.3254 -0.69053,-3.47876 0.49632,-6.27038 0.32623,-0.76733 0.70565,-1.57967 0.96933,-2.07531 0.11456,-0.21535 0.28712,-0.54188 0.38346,-0.72563 1.01507,-1.93591 3.14562,-5.1955 5.33812,-8.16698 1.98698,-2.69292 2.11,-2.84195 2.62388,-3.17822 0.84257,-0.55137 1.81994,-0.56601 2.39433,-0.0359 0.46449,0.42872 0.5765,1.20694 0.27871,1.9365 -0.0797,0.1953 -0.20404,0.44074 -0.27628,0.54542 -0.78588,1.13891 -1.52682,2.25458 -1.97339,2.9714 -0.29855,0.47923 -0.57243,0.86583 -0.60864,0.85912 -0.037,-0.007 -0.0438,0.004 -0.0155,0.0258 0.0277,0.0209 -0.14615,0.38243 -0.38629,0.80339 -0.86952,1.5243 -1.73728,3.76873 -1.59689,4.13032 0.0105,0.0272 0.1472,0.0418 0.30365,0.0325 0.37721,-0.0225 2.01527,-0.61045 2.73412,-0.98144 1.89192,-0.9764 3.40463,-1.91977 5.92657,-3.69603 1.14601,-0.80716 1.41959,-1.0195 1.39501,-1.0828 -0.0168,-0.0433 -0.0588,-0.0915 -0.0933,-0.10702 -0.0345,-0.0156 -0.29541,-0.26217 -0.57975,-0.54803 -1.96169,-1.97213 -3.4601,-4.10075 -4.63986,-6.59132 -0.4467,-0.94301 -1.17462,-2.93045 -1.42236,-3.88345 -1.734,-6.67043 -0.54587,-13.61459 3.2822,-19.18316 0.70029,-1.01868 1.19212,-1.63374 2.07017,-2.58887 2.0511,-2.23113 4.2115,-3.85027 6.97745,-5.22937 0.80459,-0.40117 2.85557,-1.18102 3.81585,-1.45091 6.78302,-1.90639 13.89468,-0.73032 19.68014,3.25454 1.28185,0.8829 2.89567,2.2794 3.81249,3.29909 l 0.10103,0.11236 0.55788,-0.76351 c 2.57688,-3.52666 4.51311,-6.88186 5.00888,-8.67961 0.11371,-0.41232 0.19517,-0.9259 0.14979,-0.94425 -0.0115,-0.005 -0.15458,7.7e-4 -0.3178,0.0124 -0.45463,0.032 -1.81081,0.52831 -2.76657,1.01242 -1.40673,0.71255 -3.326,1.8769 -4.84542,2.93954 -1.097,0.76721 -1.33069,0.89951 -1.75218,0.99192 -0.65795,0.14425 -1.17761,0.0387 -1.56347,-0.31738 -0.32057,-0.29587 -0.50094,-0.81404 -0.45776,-1.31507 0.0392,-0.45484 0.31827,-1.07163 0.66383,-1.46717 0.33628,-0.3849 2.12585,-1.75464 4.43719,-3.3962 5.07592,-3.60503 8.95559,-5.7106 11.80571,-6.40717 2.18369,-0.53371 3.76039,-0.20683 4.65432,0.96491 0.25701,0.33689 0.5428,1.06154 0.59102,1.49861 0.16924,1.53388 -0.23052,3.21496 -1.35514,5.69862 -1.71712,3.79219 -5.13357,8.89994 -9.97538,14.91364 l -0.87208,1.08316 0.58538,1.53629 c 0.46385,1.21738 0.63218,1.71941 0.81089,2.4184 1.00504,3.93092 1.02913,7.80076 0.0726,11.66212 -1.1365,4.58776 -3.72918,8.80466 -7.33552,11.93094 -2.3578,2.04394 -5.06503,3.58176 -7.98638,4.53658 z"
       id="path1987"
       inkscape:label="Planet (#4444DD)" />
    <path
       style="display:inline;fill:url(#radialGradient6507);fill-opacity:1;stroke-width:0.0516645"
       d="m 167.49006,280.3891 c 2.12236,-1.05141 4.40966,-2.45746 7.33928,-4.51159 0.87468,-0.6133 1.74367,-1.23416 1.93107,-1.37969 0.1874,-0.14554 0.82256,-0.62979 1.41147,-1.07611 3.17676,-2.4076 7.3615,-5.8927 10.70244,-8.91312 0.30465,-0.27542 0.76688,-0.69109 1.02718,-0.92368 0.5338,-0.47701 3.00631,-2.77937 3.92882,-3.65847 6.62655,-6.31468 12.95664,-13.03598 18.15368,-19.2756 7.79619,-9.3602 12.48061,-16.97568 12.51198,-20.34077 0.004,-0.38461 -0.0196,-0.51457 -0.15364,-0.86255 -0.1272,-0.33031 -0.1932,-0.44016 -0.34017,-0.56685 -1.30903,-1.12833 -4.86015,0.0991 -10.20421,3.52713 -1.36637,0.87648 -3.43173,2.2885 -3.38043,2.3111 0.0161,0.007 0.20862,-0.0949 0.42777,-0.22663 1.37244,-0.82512 3.42301,-1.76498 4.45028,-2.03972 1.05158,-0.28125 1.79059,-0.2843 2.33387,-0.01 1.28307,0.64871 1.00946,2.77216 -0.79939,6.20393 -4.44769,8.43823 -17.19046,22.88673 -30.1944,34.2362 -6.90674,6.028 -13.0305,10.36657 -17.04183,12.07382 -1.7551,0.74699 -2.93553,0.94042 -3.74826,0.61422 -0.44355,-0.17801 -0.61383,-0.37338 -0.7887,-0.90483 -0.12119,-0.36832 -0.13127,-0.4728 -0.0915,-0.94926 0.0246,-0.29445 0.10692,-0.78391 0.18302,-1.08768 0.19398,-0.77424 1.12782,-2.87236 1.79757,-4.03873 0.29688,-0.51701 0.52374,-0.93381 0.50413,-0.9262 -0.0444,0.0172 -1.16244,1.61832 -1.79563,2.57144 -2.23594,3.36571 -3.81815,6.45749 -4.31564,8.43318 -0.40536,1.60976 -0.12057,2.67509 0.80554,3.01335 0.60618,0.22142 1.63532,0.13094 2.86748,-0.25208 0.39301,-0.12217 1.9077,-0.75853 2.47825,-1.04119 z"
       id="path1219"
       inkscape:label="Ring (#99AAFF)" />
  </g>
</svg>
